<svg xmlns="http://www.w3.org/2000/svg" viewBox="5 5 90 90" role="img" aria-label="Prime Origins">
  <rect x="5" y="5" width="90" height="90" rx="20" fill="#2e2420"/>
  <g transform="translate(50 50) scale(0.8) translate(-50 -50)">
    <g fill="#c46868" stroke="#c46868" stroke-width="4" stroke-linejoin="round"><path d="M60 36 L63 15 L73 27 Z M79 26 L90 14 L91 36 Z"/></g>
    <ellipse cx="75" cy="42" rx="18" ry="16" fill="#c46868"/>
    <path d="M64.6 41 Q68.5 35.6 72.4 41 Q68.5 46.4 64.6 41 Z M77.6 41 Q81.5 35.6 85.4 41 Q81.5 46.4 77.6 41 Z M72.8 47.2 h4.4 l-2.2 2.6 z" fill="#2e2420"/>
    <g fill="#efe5d6" stroke="#2e2420" stroke-width="4" paint-order="stroke" stroke-linejoin="round">
      <path d="M38 36 C52 36 60 46 60 60 C60 76 50 86 38 86 C26 86 16 76 16 60 C16 46 24 36 38 36 Z"/><path d="M25 40 C14 39 8 51 9 65 C10 72 16 74 19 69 C22 63 22 55 29 46 Z"/><path d="M51 40 C62 39 68 51 67 65 C66 72 60 74 57 69 C54 63 54 55 47 46 Z"/>
    </g>
    <circle cx="30" cy="57" r="4.3" fill="#2e2420"/><circle cx="46" cy="57" r="4.3" fill="#2e2420"/>
    <ellipse cx="38" cy="72" rx="10" ry="7.5" fill="#2e2420"/>
    <ellipse cx="38" cy="68.5" rx="4.6" ry="3.3" fill="#efe5d6"/>
    <path d="M38 71.5 V75" stroke="#efe5d6" stroke-width="2" stroke-linecap="round"/>
  </g>
</svg>
